# xmcd
#
# Track frame offsets:
#	150
#	16401
#	32910
#	54957
#	71391
#	90028
#	105663
#	118818
#	133930
#	151224
#	168862
#	184999
#	201198
#	219045
#	235206
#	254373
#	274497
#
# Disc length: 3871
#
# Revision: 1
# Processed by: cddbd v1.5.1PL0 Copyright (c) Steve Scherf et al.
# Submitted via: CDex 1.51
# Normalized: r0:TRMNUM
#
DISCID=e60f1d11
DTITLE=Shania Twain - Come on Over
DYEAR=1999
DGENRE=Country
TTITLE0=Shania Twain_Come On Over(1)-Shania Twain_You're Still The One (Album Version)(1)[1-1-5524.1]
TTITLE1=Shania Twain_Come On Over(1)-Shania Twain_When(2)[1-1-5524.1]
TTITLE2=Shania Twain_Come On Over(1)-Shania Twain_From This Moment On (The I.V. Mix)(3)[1-1-5524.1]
TTITLE3=Shania Twain_Come On Over(1)-Shania Twain_Black Eyes, Blue Tears(4)[1-1-5524.1]
TTITLE4=Shania Twain_Come On Over(1)-Shania Twain_I Won't Leave You Lonely(5)[1-1-5524.1]
TTITLE5=Shania Twain_Come On Over(1)-Shania Twain_I'm Holdin' On To Love (To Save My Life)(6)[1-1-5524.
TTITLE6=Shania Twain_Come On Over(1)-Shania Twain_Come On Over(7)[1-1-5524.1]
TTITLE7=Shania Twain_Come On Over(1)-Shania Twain_You've Got A Way (Notting Hill Remix)(8)[1-1-5524.1]
TTITLE8=Shania Twain_Come On Over(1)-Shania Twain_Whatever You Do! Don't!(9)[1-1-5524.1]
TTITLE9=Shania Twain_Come On Over(1)-Shania Twain_Man! I Feel Like A Woman! (Album Version)(10)[1-1-5524.
TTITLE10=Shania Twain_Come On Over(1)-Shania Twain_Love Gets Me Every Time (Album Version)(11)[1-1-5524.2]
TTITLE11=Shania Twain_Come On Over(1)-Shania Twain_Don't Be Stupid (You Know I Love You)(12)[1-1-5524.1]
TTITLE12=Shania Twain_Come On Over(1)-Shania Twain_That Don't Impress Me Much (Dance Mix)(13)[1-1-5524.1]
TTITLE13=Shania Twain_Come On Over(1)-Shania Twain_Honey, I'm Home (Album Version)(14)[1-1-5524.2]
TTITLE14=Shania Twain_Come On Over(1)-Shania Twain_If You Wanna Touch Her, Ask!(15)[1-1-5524.1]
TTITLE15=Shania Twain_Come On Over(1)-Shania Twain_Rock This Country!(16)[1-1-5524.1]
TTITLE16=Shania Twain_Party for Two
EXTD=YEAR: 1999
EXTT0=
EXTT1=
EXTT2=
EXTT3=
EXTT4=
EXTT5=
EXTT6=
EXTT7=
EXTT8=
EXTT9=
EXTT10=
EXTT11=
EXTT12=
EXTT13=
EXTT14=
EXTT15=
EXTT16=
PLAYORDER=
